
<svg width="100" height="100" viewBox="0 0 100 100" xmlns="http://www.w3.org/2000/svg">
  <rect width="100" height="100" fill="none"/>
  <path d="M10,30 Q20,20 30,30 T50,30 Q60,20 70,30 T90,30" fill="none" stroke="#b68557" stroke-width="0.5" opacity="0.5">
    <animate attributeName="stroke-dasharray" from="0,300" to="300,300" dur="4s" begin="0s" repeatCount="indefinite" />
  </path>
  <path d="M10,50 Q20,40 30,50 T50,50 Q60,40 70,50 T90,50" fill="none" stroke="#b68557" stroke-width="0.5" opacity="0.5">
    <animate attributeName="stroke-dasharray" from="0,300" to="300,300" dur="4s" begin="1s" repeatCount="indefinite" />
  </path>
  <path d="M10,70 Q20,60 30,70 T50,70 Q60,60 70,70 T90,70" fill="none" stroke="#b68557" stroke-width="0.5" opacity="0.5">
    <animate attributeName="stroke-dasharray" from="0,300" to="300,300" dur="4s" begin="2s" repeatCount="indefinite" />
  </path>
  <path d="M10,90 Q20,80 30,90 T50,90 Q60,80 70,90 T90,90" fill="none" stroke="#b68557" stroke-width="0.5" opacity="0.5">
    <animate attributeName="stroke-dasharray" from="0,300" to="300,300" dur="4s" begin="3s" repeatCount="indefinite" />
  </path>
</svg>
